#Comment line ignore any data following # character 
#Hierarchical Translation and Rotation (.htr) file 
[Header]	
#Header keywords are followed by a single value 
FileType HTR		#Single word string
DataType HTRS		#Translation followed by rotation and scale data
FileVersion 1		#integer
NumSegments 23		#integer
NumFrames 4		#integer
DataFrameRate 30		#integer, data frame rate in this file
EulerRotationOrder ZYX
CalibrationUnits mm
RotationUnits Degrees
GlobalAxisofGravity Y
BoneLengthAxis Y
ScaleFactor 1.00
[SegmentNames&Hierarchy]
#CHILD	PARENT
MASTER GLOBAL
weapon MASTER
arm_lock_bottom_part1 weapon
arm_lock_bottom_part2 weapon
arm_lock_bottom_part3 weapon
arm_lock_bottom_part4 weapon
arm_lock_top_part1 weapon
arm_lock_top_part2 weapon
arm_lock_top_part3 weapon
front_lower_left_part1 weapon
front_lower_right_part1 weapon
front_top_left_part weapon
front_top_right_part1 weapon
scope_part1 weapon
scope_part2 weapon
front_lower_left_part2 front_lower_left_part1
front_lower_left_part3 front_lower_left_part2
front_lower_right_part2 front_lower_right_part1
front_lower_right_part3 front_lower_right_part2
front_top_left_part2 front_top_left_part
front_top_left_part3 front_top_left_part2
front_top_right_part2 front_top_right_part1
front_top_right_part3 front_top_right_part2
[BasePosition]
#SegmentName Tx, Ty, Tz, Rx, Ry, Rz, BoneLength
MASTER 0.000000 0.000000 0.000000 -90.000000 0.000000 0.000000 10.000000 
weapon 0.000000 0.000000 0.000000 0.000000 0.000000 0.000000 10.000000 
arm_lock_bottom_part1 0.000000 0.000000 0.000000 0.000000 0.000000 0.000000 10.000000 
arm_lock_bottom_part2 0.000000 0.000000 0.000000 0.000000 0.000000 0.000000 10.000000 
arm_lock_bottom_part3 0.000000 0.000000 0.000000 0.000000 0.000000 0.000000 10.000000 
arm_lock_bottom_part4 0.000000 0.000000 0.000000 0.000000 0.000000 0.000000 10.000000 
arm_lock_top_part1 0.000000 0.000000 0.000000 0.000000 0.000000 0.000000 10.000000 
arm_lock_top_part2 0.000000 0.000000 0.000000 0.000000 0.000000 0.000000 10.000000 
arm_lock_top_part3 0.000000 0.000000 0.000000 0.000000 0.000000 0.000000 10.000000 
front_lower_left_part1 0.000000 0.000000 0.000000 0.000000 0.000000 0.000000 10.000000 
front_lower_right_part1 0.000000 0.000000 0.000000 0.000000 0.000000 0.000000 10.000000 
front_top_left_part 0.000000 0.000000 0.000000 0.000000 0.000000 0.000000 10.000000 
front_top_right_part1 0.000000 0.000000 0.000000 0.000000 0.000000 0.000000 10.000000 
scope_part1 0.000000 0.000000 0.000000 0.000000 0.000000 0.000000 10.000000 
scope_part2 0.000000 0.000000 0.000000 0.000000 0.000000 0.000000 10.000000 
front_lower_left_part2 0.000000 0.000000 0.000000 0.000000 0.000000 0.000000 10.000000 
front_lower_left_part3 0.000000 0.000000 0.000000 0.000000 0.000000 0.000000 10.000000 
front_lower_right_part2 0.000000 0.000000 0.000000 0.000000 0.000000 0.000000 10.000000 
front_lower_right_part3 0.000000 0.000000 0.000000 0.000000 0.000000 0.000000 10.000000 
front_top_left_part2 0.000000 0.000000 0.000000 0.000000 0.000000 0.000000 10.000000 
front_top_left_part3 0.000000 0.000000 0.000000 0.000000 0.000000 0.000000 10.000000 
front_top_right_part2 0.000000 0.000000 0.000000 0.000000 0.000000 0.000000 10.000000 
front_top_right_part3 0.000000 0.000000 0.000000 0.000000 0.000000 0.000000 10.000000 
#Beginning of Data. Separated by tabs
#Fr	Tx	Ty	Tz	Rx	Ry	Rz	SF
[MASTER]
1 0.000000 -0.000019 0.000002 0.002458 -0.000000 0.000000 0.000019
2 0.000000 -0.000019 0.000002 0.002458 -0.000000 0.000000 0.000019
3 0.000000 -0.000019 0.000002 0.002458 -0.000000 0.000000 0.000019
4 0.000000 -0.000019 0.000002 0.002458 -0.000000 0.000000 0.000019
[weapon]
1 10.182457 -168.977844 -13.084106 -0.002473 -0.000000 -0.000020 169.789246
2 10.182457 -168.977844 -13.084106 -0.002473 -0.000000 -0.000020 169.789246
3 10.182457 -168.977844 -13.084106 -0.002473 -0.000000 -0.000020 169.789246
4 10.182476 -168.977890 -13.084106 -0.002473 -0.000000 -0.000020 169.789291
[arm_lock_bottom_part1]
1 -48.820000 98.566208 -83.498993 179.999985 0.000004 9.388626 138.096970
2 -48.820000 98.566208 -83.498993 179.999985 0.000004 9.388626 138.096970
3 -48.820000 98.566208 -83.498993 179.999985 0.000004 9.388626 138.096970
4 -48.820019 98.566170 -83.498993 179.999985 0.000004 9.388626 138.096939
[arm_lock_bottom_part2]
1 -49.022766 58.782005 -78.526535 -179.999985 -0.000001 6.576765 109.658440
2 -49.022766 58.782005 -78.526535 -179.999985 -0.000001 6.576765 109.658440
3 -49.022766 58.782005 -78.526535 -179.999985 -0.000001 6.576765 109.658440
4 -49.022751 58.781967 -78.526535 -179.999985 -0.000001 6.576765 109.658409
[arm_lock_bottom_part3]
1 -51.266422 -16.798210 -66.920395 -179.999985 -0.000001 4.326176 85.957924
2 -51.266438 -16.798210 -66.920395 -179.999985 -0.000001 4.326176 85.957939
3 -51.266422 -16.798210 -66.920395 -179.999985 -0.000001 4.326176 85.957924
4 -51.266422 -16.798248 -66.920395 -179.999985 -0.000001 4.326176 85.957932
[arm_lock_bottom_part4]
1 -40.078102 -93.503113 -59.330063 -179.999985 -0.000000 1.322129 117.767326
2 -40.078102 -93.503113 -59.330063 -179.999985 -0.000000 1.322129 117.767326
3 -40.078102 -93.503113 -59.330063 -179.999985 -0.000000 1.322129 117.767326
4 -40.078083 -93.503136 -59.330063 -179.999985 -0.000000 1.322129 117.767326
[arm_lock_top_part1]
1 -47.532558 61.554489 78.379364 0.000000 -0.000000 -9.999999 110.415680
2 -47.532558 61.554489 78.379364 0.000000 -0.000000 -9.999999 110.415680
3 -47.532558 61.554489 78.379364 0.000000 -0.000000 -9.999999 110.415680
4 -47.532558 61.554451 78.379364 0.000000 -0.000000 -9.999999 110.415672
[arm_lock_top_part2]
1 -45.622673 13.709908 63.393555 0.000000 -0.000000 -7.722126 79.297745
2 -45.622673 13.709908 63.393555 0.000000 -0.000000 -7.722126 79.297745
3 -45.622673 13.709908 63.393555 0.000000 -0.000000 -7.722126 79.297745
4 -45.622673 13.709869 63.393555 0.000000 -0.000000 -7.722126 79.297745
[arm_lock_top_part3]
1 -43.788544 -73.747208 72.061615 0.000000 0.000000 -4.533067 112.022163
2 -43.788544 -73.747231 72.061615 0.000000 0.000000 -4.533067 112.022171
3 -43.788544 -73.747208 72.061615 0.000000 0.000000 -4.533067 112.022163
4 -43.788525 -73.747231 72.061615 0.000000 0.000000 -4.533067 112.022163
[front_lower_left_part1]
1 -46.798534 475.071045 -43.538895 -17.980034 0.000051 32.194077 479.351898
2 -46.798515 475.070984 -43.538895 -17.980034 0.000051 32.194077 479.351837
3 -46.798534 475.071045 -43.538895 -17.980034 0.000051 32.194077 479.351898
4 -46.798534 475.070953 -43.538895 -17.980034 0.000051 32.194077 479.351807
[front_lower_right_part1]
1 26.433468 475.070984 -43.538742 -17.167982 -0.000012 -27.317894 477.793671
2 26.433447 475.070984 -43.538895 -17.167988 -0.000012 -27.317902 477.793671
3 26.433468 475.070984 -43.538742 -17.167982 -0.000012 -27.317894 477.793671
4 26.433447 475.070862 -43.538895 -17.167982 -0.000012 -27.317894 477.793579
[front_top_left_part]
1 -47.897224 494.788910 7.030945 -0.000000 0.000003 -0.000001 497.151520
2 -47.897205 494.788910 7.030945 -0.000000 0.000003 -0.000001 497.151520
3 -47.897224 494.788910 7.030945 -0.000000 0.000003 -0.000001 497.151520
4 -47.897224 494.788879 7.030945 -0.000000 0.000003 -0.000001 497.151489
[front_top_right_part1]
1 27.532139 494.788910 7.031097 0.000000 -0.000000 -0.000000 495.604218
2 27.532156 494.788910 7.031097 0.000000 -0.000000 -0.000000 495.604218
3 27.532139 494.788910 7.031097 0.000000 -0.000000 -0.000000 495.604218
4 27.532120 494.788727 7.031097 0.000000 -0.000000 -0.000000 495.604004
[scope_part1]
1 -10.754299 87.338936 156.453094 -5.094402 -15.675614 1.379905 179.502960
2 -10.754318 87.338936 156.453094 -5.094206 -15.666711 1.379077 179.502960
3 -10.754299 87.338936 156.453094 -5.094009 -15.657805 1.378249 179.502960
4 -10.754318 87.338905 156.453094 -5.093416 -15.636190 1.376231 179.502960
[scope_part2]
1 -10.754299 82.597351 156.859894 -5.715013 30.846378 -2.937432 177.603500
2 -10.754299 82.597351 156.859894 -5.714745 30.841181 -2.936898 177.603500
3 -10.754299 82.597351 156.859894 -5.713807 30.825857 -2.935127 177.603500
4 -10.754299 82.597351 156.859894 -5.712323 30.800854 -2.932165 177.603500
[front_lower_left_part2]
1 -55.193634 141.618408 32.268219 0.000000 -0.000000 15.371656 155.381317
2 -55.193596 141.618393 32.268219 0.000000 -0.000000 15.367135 155.381271
3 -55.193634 141.618408 32.268219 0.000000 -0.000000 15.353719 155.381317
4 -55.193516 141.618454 32.268219 0.000000 -0.000000 15.332050 155.381302
[front_lower_left_part3]
1 -10.943755 108.509369 -11.124877 35.646374 -8.890635 -24.057442 109.625778
2 -10.943831 108.509369 -11.124877 35.646664 -8.889086 -24.059616 109.625786
3 -10.943831 108.509445 -11.124877 35.647671 -8.884631 -24.065878 109.625862
4 -10.943755 108.509445 -11.125030 35.649269 -8.877303 -24.076237 109.625870
[front_lower_right_part2]
1 55.193668 141.618195 32.268372 0.000000 0.000000 -19.035873 155.381149
2 55.193707 141.618271 32.268372 0.000000 0.000000 -19.032269 155.381226
3 55.193668 141.618195 32.268372 0.000000 0.000000 -19.021769 155.381149
4 55.193665 141.618271 32.268372 0.000000 0.000000 -19.004688 155.381226
[front_lower_right_part3]
1 10.943755 108.509521 -11.124725 35.198376 10.732838 21.429367 109.625916
2 10.943831 108.509628 -11.124725 35.198723 10.731709 21.431030 109.626030
3 10.943851 108.509590 -11.124725 35.199635 10.728201 21.436094 109.625999
4 10.943831 108.509521 -11.124877 35.201122 10.722652 21.444031 109.625931
[front_top_left_part2]
1 -88.355881 137.389816 57.355957 9.860997 0.360850 20.210054 173.125473
2 -88.345528 137.389816 57.355495 9.860898 0.361650 20.205555 173.120041
3 -88.315147 137.389893 57.353668 9.860830 0.363990 20.192207 173.103989
4 -88.265907 137.390060 57.351070 9.860617 0.367688 20.170626 173.078156
[front_top_left_part3]
1 -28.216362 149.656830 49.959717 -26.075756 -1.575345 -61.752136 160.278839
2 -28.216400 149.656738 49.959717 -26.075756 -1.576412 -61.754311 160.278748
3 -28.216400 149.656982 49.959564 -26.075565 -1.579432 -61.760471 160.278931
4 -28.216362 149.656982 49.959717 -26.075283 -1.584328 -61.770443 160.278961
[front_top_right_part2]
1 82.208443 137.572922 52.660522 8.053195 1.221322 -23.359804 168.694016
2 82.199860 137.572922 52.660980 8.053236 1.220667 -23.355101 168.689972
3 82.174873 137.572861 52.662354 8.053510 1.218706 -23.341467 168.678162
4 82.134285 137.572861 52.664642 8.053902 1.215592 -23.319210 168.659119
[front_top_right_part3]
1 28.216536 149.657059 49.959488 -25.958696 3.004996 64.682632 160.278992
2 28.216484 149.656982 49.959564 -25.958578 3.005807 64.684334 160.278946
3 28.216482 149.657135 49.959793 -25.958330 3.008170 64.689240 160.279160
4 28.216459 149.656982 49.959564 -25.957930 3.012167 64.697395 160.278946
